PathFileType	3	(X/Y/Z)	squats_1__fused_aligned.trc
DataRate	CameraRate	NumFrames	NumMarkers	Units	OrigDataRate	OrigDataStartFrame	OrigNumFrames
100.0	100.0	14	19	mm	100.0	752	1650
Frame#	Time	pelvis			neck			head			hip_left			hip_right			knee_left			knee_right			ankle_left			ankle_right			heel_left			heel_right			toe_left			toe_right			shoulder_left			shoulder_right			elbow_left			elbow_right			wrist_left			wrist_right			
		X1	Y1	Z1	X2	Y2	Z2	X3	Y3	Z3	X4	Y4	Z4	X5	Y5	Z5	X6	Y6	Z6	X7	Y7	Z7	X8	Y8	Z8	X9	Y9	Z9	X10	Y10	Z10	X11	Y11	Z11	X12	Y12	Z12	X13	Y13	Z13	X14	Y14	Z14	X15	Y15	Z15	X16	Y16	Z16	X17	Y17	Z17	X18	Y18	Z18	X19	Y19	Z19	
752	7.51000	73.399726	965.144897	67.057777	47.606475	1549.137163	35.339928	34.171354	1690.891984	-77.614537	-2.763494	962.344514	72.033828	149.562755	967.945313	62.081692	-51.890971	527.231136	47.398412	208.026470	537.018667	11.333853	-76.704139	127.991294	138.931585	253.161296	136.778390	88.455302	-73.229754	81.035053	176.057636	255.028066	91.699751	127.733475	-92.615583	64.362473	-45.880023	260.435768	57.846394	-93.689645	-124.503203	1481.691032	86.270957	231.147736	1493.248797	59.821478	-200.834180	1196.708776	122.215553	328.916050	1206.875293	51.034469	-170.681909	1101.658346	-121.696996	341.339169	1077.492653	-176.566900
753	7.52000	73.696461	965.185027	66.145494	48.119797	1549.389815	34.117932	34.411366	1690.960617	-78.950321	-2.463168	962.415343	71.098457	149.855875	967.954744	61.192493	-51.818727	527.165478	46.718013	208.694286	536.962909	10.348320	-76.777735	127.998803	138.612792	254.111322	136.802349	87.831904	-73.304483	81.088369	175.798343	255.989457	91.768952	127.167673	-92.628610	64.038977	-46.132239	261.710514	57.681256	-94.226924	-124.003483	1482.018190	85.116290	231.702571	1493.375347	58.648838	-200.589752	1197.238864	120.972412	329.394261	1207.093560	49.901625	-171.572127	1102.778345	-123.086142	342.304478	1077.801301	-177.481803
754	7.53000	73.993196	965.225157	65.233211	48.633119	1549.642466	32.895936	34.651379	1691.029251	-80.286104	-2.162842	962.486172	70.163087	150.148995	967.964175	60.303294	-51.746483	527.099819	46.037613	209.362101	536.907150	9.362786	-76.851330	128.006312	138.294000	255.061348	136.826309	87.208506	-73.379213	81.141686	175.539050	256.950849	91.838153	126.601870	-92.641637	63.715481	-46.384455	262.985260	57.516117	-94.764202	-123.503763	1482.345347	83.961622	232.257406	1493.501898	57.476197	-200.345325	1197.768953	119.729271	329.872473	1207.311828	48.768782	-172.462345	1103.898344	-124.475288	343.269786	1078.109949	-178.396707
755	7.54000	74.417398	965.099132	64.433525	49.208140	1549.507646	30.753681	35.334166	1690.597226	-82.744820	-1.725919	962.402995	69.330144	150.560499	967.795299	59.536868	-51.600168	527.077082	44.431808	209.906169	536.831182	7.627934	-76.731338	128.179026	137.041679	255.710323	136.950319	85.914333	-73.261566	81.357561	174.331306	257.589562	92.001326	125.348749	-92.496926	63.683844	-47.577070	264.047132	57.588362	-96.006353	-123.059703	1482.306624	81.680803	232.859169	1493.275076	55.501210	-199.792863	1197.726725	117.453551	330.449926	1207.148522	46.796116	-171.476866	1104.827867	-126.851789	343.432603	1078.192299	-180.228971
756	7.55000	74.841600	964.973107	63.633838	49.783161	1549.372827	28.611425	36.016953	1690.165201	-85.203537	-1.288995	962.319818	68.497200	150.972003	967.626423	58.770443	-51.453854	527.054345	42.826003	210.450237	536.755214	5.893081	-76.611345	128.351740	135.789357	256.359298	137.074329	84.620161	-73.143919	81.573435	173.123562	258.228274	92.164499	124.095628	-92.352215	63.652207	-48.769685	265.109005	57.660608	-97.248504	-122.615643	1482.267900	79.399984	233.460933	1493.048255	53.526223	-199.240401	1197.684498	115.177830	331.027379	1206.985216	44.823451	-170.491387	1105.757390	-129.228289	343.595420	1078.274650	-182.061234
757	7.56000	75.265802	964.847083	62.834151	50.358182	1549.238007	26.469170	36.699740	1689.733177	-87.662253	-0.852072	962.236641	67.664257	151.383508	967.457548	58.004017	-51.307539	527.031608	41.220199	210.994304	536.679246	4.158228	-76.491352	128.524454	134.537036	257.008273	137.198339	83.325989	-73.026272	81.789310	171.915818	258.866987	92.327672	122.842507	-92.207503	63.620570	-49.962301	266.170877	57.732853	-98.490654	-122.171583	1482.229177	77.119165	234.062696	1492.821434	51.551235	-198.687939	1197.642270	112.902110	331.604832	1206.821911	42.850785	-169.505908	1106.686912	-131.604790	343.758237	1078.357000	-183.893498
758	7.57000	75.690004	964.721058	62.034465	50.933203	1549.103188	24.326914	37.382526	1689.301152	-90.120969	-0.415148	962.153465	66.831314	151.795012	967.288672	57.237591	-51.161225	527.008871	39.614394	211.538372	536.603278	2.423376	-76.371360	128.697167	133.284715	257.657248	137.322349	82.031816	-72.908625	82.005185	170.708074	259.505700	92.490845	121.589386	-92.062792	63.588933	-51.154916	267.232750	57.805098	-99.732805	-121.727523	1482.190454	74.838346	234.664460	1492.594612	49.576248	-198.135477	1197.600042	110.626390	332.182285	1206.658605	40.878120	-168.520429	1107.616435	-133.981291	343.921054	1078.439351	-185.725762
759	7.58000	76.114206	964.595034	61.234778	51.508223	1548.968368	22.184659	38.065313	1688.869127	-92.579686	0.021775	962.070288	65.998370	152.206517	967.119796	56.471165	-51.014910	526.986134	38.008589	212.082440	536.527310	0.688523	-76.251367	128.869881	132.032394	258.306223	137.446359	80.737644	-72.790979	82.221059	169.500330	260.144412	92.654018	120.336265	-91.918081	63.557296	-52.347532	268.294622	57.877343	-100.974956	-121.283463	1482.151730	72.557527	235.266223	1492.367791	47.601261	-197.583015	1197.557815	108.350669	332.759739	1206.495299	38.905454	-167.534950	1108.545957	-136.357792	344.083871	1078.521701	-187.558026
760	7.59000	76.538408	964.469009	60.435091	52.083244	1548.833548	20.042403	38.748100	1688.437103	-95.038402	0.458699	961.987111	65.165427	152.618021	966.950920	55.704739	-50.868596	526.963397	36.402784	212.626508	536.451342	-1.046329	-76.131374	129.042595	130.780072	258.955198	137.570369	79.443471	-72.673332	82.436934	168.292586	260.783125	92.817191	119.083143	-91.773370	63.525659	-53.540147	269.356495	57.949588	-102.217106	-120.839403	1482.113007	70.276708	235.867987	1492.140970	45.626273	-197.030552	1197.515587	106.074949	333.337192	1206.331993	36.932789	-166.549471	1109.475480	-138.734292	344.246689	1078.604052	-189.390290
761	7.60000	76.962610	964.342984	59.635405	52.658265	1548.698729	17.900147	39.430887	1688.005078	-97.497118	0.895622	961.903934	64.332484	153.029525	966.782045	54.938313	-50.722281	526.940660	34.796979	213.170576	536.375374	-2.781182	-76.011382	129.215308	129.527751	259.604173	137.694379	78.149299	-72.555685	82.652809	167.084841	261.421838	92.980364	117.830022	-91.628659	63.494022	-54.732762	270.418368	58.021834	-103.459257	-120.395343	1482.074283	67.995889	236.469750	1491.914148	43.651286	-196.478090	1197.473359	103.799228	333.914645	1206.168688	34.960123	-165.563992	1110.405003	-141.110793	344.409506	1078.686403	-191.222554
762	7.61000	77.386812	964.216960	58.835718	53.233286	1548.563909	15.757892	40.113674	1687.573053	-99.955835	1.332546	961.820757	63.499540	153.441030	966.613169	54.171888	-50.575967	526.917923	33.191174	213.714643	536.299406	-4.516035	-75.891389	129.388022	128.275430	260.253148	137.818389	76.855127	-72.438038	82.868684	165.877097	262.060550	93.143537	116.576901	-91.483948	63.462385	-55.925378	271.480240	58.094079	-104.701407	-119.951283	1482.035560	65.715070	237.071514	1491.687327	41.676299	-195.925628	1197.431132	101.523508	334.492098	1206.005382	32.987458	-164.578513	1111.334525	-143.487294	344.572323	1078.768753	-193.054818
763	7.62000	77.811014	964.090935	58.036032	53.808306	1548.429089	13.615636	40.796461	1687.141029	-102.414551	1.769469	961.737581	62.666597	153.852534	966.444293	53.405462	-50.429652	526.895186	31.585369	214.258711	536.223438	-6.250887	-75.771396	129.560736	127.023109	260.902123	137.942400	75.560954	-72.320391	83.084558	164.669353	262.699263	93.306710	115.323780	-91.339236	63.430748	-57.117993	272.542113	58.166324	-105.943558	-119.507223	1481.996836	63.434251	237.673277	1491.460506	39.701311	-195.373166	1197.388904	99.247788	335.069551	1205.842076	31.014792	-163.593034	1112.264048	-145.863794	344.735140	1078.851104	-194.887082
764	7.63000	78.235216	963.964911	57.236345	54.383327	1548.294270	11.473381	41.479248	1686.709004	-104.873268	2.206393	961.654404	61.833654	154.264039	966.275417	52.639036	-50.283337	526.872449	29.979564	214.802779	536.147470	-7.985740	-75.651403	129.733450	125.770788	261.551098	138.066410	74.266782	-72.202745	83.300433	163.461609	263.337976	93.469883	114.070659	-91.194525	63.399111	-58.310608	273.603985	58.238569	-107.185709	-119.063163	1481.958113	61.153432	238.275041	1491.233684	37.726324	-194.820704	1197.346676	96.972067	335.647004	1205.678770	29.042127	-162.607555	1113.193571	-148.240295	344.897957	1078.933454	-196.719345
765	7.64000	78.699711	963.567138	57.406928	55.090443	1547.550678	8.963189	42.263764	1685.344567	-107.958493	2.683282	961.315945	62.040269	154.716130	965.818330	52.773595	-50.374523	526.925146	28.051611	214.633047	535.976057	-9.877374	-75.729704	130.043643	124.510759	261.235443	138.132769	73.149860	-72.277661	83.652648	162.246816	263.075453	93.578256	112.996340	-91.583909	63.645022	-59.472109	273.016144	58.313492	-108.235579	-118.446535	1481.586727	58.671596	238.991334	1490.393905	35.449908	-194.887986	1197.289682	94.780260	335.966000	1204.810808	27.079903	-162.939558	1112.643303	-149.998681	344.431433	1078.147555	-198.580781
